# xmcd
#
# Track frame offsets: 
#        150
#        16247
#        30095
#        47734
#        64042
#        75452
#        85102
#        98668
#        116107
#        130617
#        144926
#        158136
#        172450
#        190900
#
# Disc length: 2653 seconds
#
# Revision: 0
# Processed by: cddbd v1.5.2PL0 Copyright (c) Steve Scherf et al.
# Submitted via: ExactAudioCopy v0.95b4
#
DISCID=a80a5b0e
DTITLE=Eric Bibb - Twelve Gates To The City
DYEAR=2006
DGENRE=Gospel
TTITLE0=Twelve Gates To The City
TTITLE1=Woke Up This Mornin'
TTITLE2=Needed Time
TTITLE3=Shingle By Shingle
TTITLE4=Let Me Fly
TTITLE5=Mornin' Train
TTITLE6=The Soul Of A Man
TTITLE7=I Want Jesus To Walk With Me
TTITLE8=In My Father's House
TTITLE9=Show Me The Way
TTITLE10=Right On Time
TTITLE11=I Heard The Angels Singing
TTITLE12=All My Trials
TTITLE13=I Want Jesus To Walk With Me (instrumental)
EXTD=
EXTT0=
EXTT1=
EXTT2=
EXTT3=
EXTT4=
EXTT5=
EXTT6=
EXTT7=
EXTT8=
EXTT9=
EXTT10=
EXTT11=
EXTT12=
EXTT13=
PLAYORDER=
